<?xml version="1.0" encoding="UTF-8" standalone="no"?>
<!DOCTYPE svg PUBLIC "-//W3C//DTD SVG 1.1//EN"
 "http://www.w3.org/Graphics/SVG/1.1/DTD/svg11.dtd">
<!-- Generated by graphviz version 2.40.1 (20161225.0304)
 -->
<!-- Title: dependencies Pages: 1 -->
<svg width="6477pt" height="284pt"
 viewBox="0.00 0.00 6477.00 284.00" xmlns="http://www.w3.org/2000/svg" xmlns:xlink="http://www.w3.org/1999/xlink">
<g id="graph0" class="graph" transform="scale(1 1) rotate(0) translate(4 280)">
<title>dependencies</title>
<polygon fill="#ffffff" stroke="transparent" points="-4,4 -4,-280 6473,-280 6473,4 -4,4"/>
<text text-anchor="start" x="3213.5091" y="-42.4" font-family="sans-serif" font-weight="bold" font-size="14.00" fill="#000000">Legend</text>
<polygon fill="#ffffb3" stroke="transparent" points="3000.5,-10 3000.5,-30 3020.5,-30 3020.5,-10 3000.5,-10"/>
<text text-anchor="start" x="3024.129" y="-15.4" font-family="sans-serif" font-size="14.00" fill="#000000"> &#160;Declarations</text>
<polygon fill="#8dd3c7" stroke="transparent" points="3113.5,-10 3113.5,-30 3133.5,-30 3133.5,-10 3113.5,-10"/>
<text text-anchor="start" x="3137.2251" y="-15.4" font-family="sans-serif" font-size="14.00" fill="#000000"> &#160;Module</text>
<polygon fill="#80b1d3" stroke="transparent" points="3199.5,-10 3199.5,-30 3219.5,-30 3219.5,-10 3199.5,-10"/>
<text text-anchor="start" x="3223.2812" y="-15.4" font-family="sans-serif" font-size="14.00" fill="#000000"> &#160;Bootstrap</text>
<polygon fill="#fdb462" stroke="transparent" points="3296.5,-10 3296.5,-30 3316.5,-30 3316.5,-10 3296.5,-10"/>
<text text-anchor="start" x="3320.1732" y="-15.4" font-family="sans-serif" font-size="14.00" fill="#000000"> &#160;Providers</text>
<polygon fill="#fb8072" stroke="transparent" points="3392.5,-10 3392.5,-30 3412.5,-30 3412.5,-10 3392.5,-10"/>
<text text-anchor="start" x="3416.2258" y="-15.4" font-family="sans-serif" font-size="14.00" fill="#000000"> &#160;Exports</text>
<g id="clust1" class="cluster">
<title>cluster_AppModule</title>
<polygon fill="none" stroke="#000000" stroke-dasharray="1,5" points="8,-70 8,-268 6461,-268 6461,-70 8,-70"/>
</g>
<g id="clust2" class="cluster">
<title>cluster_AppModule_declarations</title>
<polygon fill="none" stroke="#000000" points="1371,-78 1371,-130 6453,-130 6453,-78 1371,-78"/>
</g>
<g id="clust32" class="cluster">
<title>cluster_AppModule_imports</title>
<polygon fill="none" stroke="#000000" points="1219,-78 1219,-130 1363,-130 1363,-78 1219,-78"/>
</g>
<g id="clust34" class="cluster">
<title>cluster_AppModule_bootstrap</title>
<polygon fill="none" stroke="#000000" points="3076,-208 3076,-260 3200,-260 3200,-208 3076,-208"/>
</g>
<g id="clust35" class="cluster">
<title>cluster_AppModule_providers</title>
<polygon fill="none" stroke="#000000" points="16,-78 16,-130 1211,-130 1211,-78 16,-78"/>
</g>
<!-- AddMailTemplateComponent -->
<g id="node1" class="node">
<title>AddMailTemplateComponent</title>
<polygon fill="#ffffb3" stroke="#000000" points="6445.2478,-122 6260.7522,-122 6260.7522,-86 6445.2478,-86 6445.2478,-122"/>
<text text-anchor="middle" x="6353" y="-99.8" font-family="Times,serif" font-size="14.00" fill="#000000">AddMailTemplateComponent</text>
</g>
<!-- AppModule -->
<g id="node30" class="node">
<title>AppModule</title>
<polygon fill="#8dd3c7" stroke="#000000" points="3179.6571,-187 3176.6571,-191 3155.6571,-191 3152.6571,-187 3096.3429,-187 3096.3429,-151 3179.6571,-151 3179.6571,-187"/>
<text text-anchor="middle" x="3138" y="-164.8" font-family="Times,serif" font-size="14.00" fill="#000000">AppModule</text>
</g>
<!-- AddMailTemplateComponent&#45;&gt;AppModule -->
<g id="edge1" class="edge">
<title>AddMailTemplateComponent&#45;&gt;AppModule</title>
<path fill="none" stroke="#000000" d="M6353,-122.1985C6353,-146.3563 6353,-186 6353,-186 6353,-186 3189.8253,-186 3189.8253,-186"/>
<polygon fill="#000000" stroke="#000000" points="3189.8254,-182.5001 3179.8253,-186 3189.8253,-189.5001 3189.8254,-182.5001"/>
</g>
<!-- AppComponent -->
<g id="node2" class="node">
<title>AppComponent</title>
<polygon fill="#ffffb3" stroke="#000000" points="6242.9399,-122 6137.0601,-122 6137.0601,-86 6242.9399,-86 6242.9399,-122"/>
<text text-anchor="middle" x="6190" y="-99.8" font-family="Times,serif" font-size="14.00" fill="#000000">AppComponent</text>
</g>
<!-- AppComponent&#45;&gt;AppModule -->
<g id="edge2" class="edge">
<title>AppComponent&#45;&gt;AppModule</title>
<path fill="none" stroke="#000000" d="M6190,-122.1532C6190,-145.7566 6190,-184 6190,-184 6190,-184 3189.6945,-184 3189.6945,-184"/>
<polygon fill="#000000" stroke="#000000" points="3189.6946,-180.5001 3179.6945,-184 3189.6945,-187.5001 3189.6946,-180.5001"/>
</g>
<!-- ArchiefComponent -->
<g id="node3" class="node">
<title>ArchiefComponent</title>
<polygon fill="#ffffb3" stroke="#000000" points="6119.08,-122 5994.92,-122 5994.92,-86 6119.08,-86 6119.08,-122"/>
<text text-anchor="middle" x="6057" y="-99.8" font-family="Times,serif" font-size="14.00" fill="#000000">ArchiefComponent</text>
</g>
<!-- ArchiefComponent&#45;&gt;AppModule -->
<g id="edge3" class="edge">
<title>ArchiefComponent&#45;&gt;AppModule</title>
<path fill="none" stroke="#000000" d="M6057,-122.0908C6057,-145.1328 6057,-182 6057,-182 6057,-182 3189.8247,-182 3189.8247,-182"/>
<polygon fill="#000000" stroke="#000000" points="3189.8247,-178.5001 3179.8247,-182 3189.8247,-185.5001 3189.8247,-178.5001"/>
</g>
<!-- AuthComponent -->
<g id="node4" class="node">
<title>AuthComponent</title>
<polygon fill="#ffffb3" stroke="#000000" points="5976.8301,-122 5867.1699,-122 5867.1699,-86 5976.8301,-86 5976.8301,-122"/>
<text text-anchor="middle" x="5922" y="-99.8" font-family="Times,serif" font-size="14.00" fill="#000000">AuthComponent</text>
</g>
<!-- AuthComponent&#45;&gt;AppModule -->
<g id="edge4" class="edge">
<title>AuthComponent&#45;&gt;AppModule</title>
<path fill="none" stroke="#000000" d="M5922,-122.0109C5922,-144.4852 5922,-180 5922,-180 5922,-180 3189.7893,-180 3189.7893,-180"/>
<polygon fill="#000000" stroke="#000000" points="3189.7894,-176.5001 3179.7893,-180 3189.7893,-183.5001 3189.7894,-176.5001"/>
</g>
<!-- CategoryComponent -->
<g id="node5" class="node">
<title>CategoryComponent</title>
<polygon fill="#ffffb3" stroke="#000000" points="5849.1499,-122 5716.8501,-122 5716.8501,-86 5849.1499,-86 5849.1499,-122"/>
<text text-anchor="middle" x="5783" y="-99.8" font-family="Times,serif" font-size="14.00" fill="#000000">CategoryComponent</text>
</g>
<!-- CategoryComponent&#45;&gt;AppModule -->
<g id="edge5" class="edge">
<title>CategoryComponent&#45;&gt;AppModule</title>
<path fill="none" stroke="#000000" d="M5783,-122.2921C5783,-144.2057 5783,-178 5783,-178 5783,-178 3189.8133,-178 3189.8133,-178"/>
<polygon fill="#000000" stroke="#000000" points="3189.8133,-174.5001 3179.8133,-178 3189.8132,-181.5001 3189.8133,-174.5001"/>
</g>
<!-- CategoryModalComponent -->
<g id="node6" class="node">
<title>CategoryModalComponent</title>
<polygon fill="#ffffb3" stroke="#000000" points="5698.6993,-122 5529.3007,-122 5529.3007,-86 5698.6993,-86 5698.6993,-122"/>
<text text-anchor="middle" x="5614" y="-99.8" font-family="Times,serif" font-size="14.00" fill="#000000">CategoryModalComponent</text>
</g>
<!-- CategoryModalComponent&#45;&gt;AppModule -->
<g id="edge6" class="edge">
<title>CategoryModalComponent&#45;&gt;AppModule</title>
<path fill="none" stroke="#000000" d="M5614,-122.0449C5614,-143.6623 5614,-177 5614,-177 5614,-177 3189.6789,-177 3189.6789,-177"/>
<polygon fill="#000000" stroke="#000000" points="3189.6789,-173.5001 3179.6789,-177 3189.6788,-180.5001 3189.6789,-173.5001"/>
</g>
<!-- CreateDefectComponent -->
<g id="node7" class="node">
<title>CreateDefectComponent</title>
<polygon fill="#ffffb3" stroke="#000000" points="5511.6657,-122 5356.3343,-122 5356.3343,-86 5511.6657,-86 5511.6657,-122"/>
<text text-anchor="middle" x="5434" y="-99.8" font-family="Times,serif" font-size="14.00" fill="#000000">CreateDefectComponent</text>
</g>
<!-- CreateDefectComponent&#45;&gt;AppModule -->
<g id="edge7" class="edge">
<title>CreateDefectComponent&#45;&gt;AppModule</title>
<path fill="none" stroke="#000000" d="M5434,-122.2843C5434,-143.3211 5434,-175 5434,-175 5434,-175 3189.8113,-175 3189.8113,-175"/>
<polygon fill="#000000" stroke="#000000" points="3189.8114,-171.5001 3179.8113,-175 3189.8113,-178.5001 3189.8114,-171.5001"/>
</g>
<!-- CreateExternalFirmDialogComponent -->
<g id="node8" class="node">
<title>CreateExternalFirmDialogComponent</title>
<polygon fill="#ffffb3" stroke="#000000" points="5338.1147,-122 5107.8853,-122 5107.8853,-86 5338.1147,-86 5338.1147,-122"/>
<text text-anchor="middle" x="5223" y="-99.8" font-family="Times,serif" font-size="14.00" fill="#000000">CreateExternalFirmDialogComponent</text>
</g>
<!-- CreateExternalFirmDialogComponent&#45;&gt;AppModule -->
<g id="edge8" class="edge">
<title>CreateExternalFirmDialogComponent&#45;&gt;AppModule</title>
<path fill="none" stroke="#000000" d="M5184.5643,-122.308C5184.5643,-142.1455 5184.5643,-171 5184.5643,-171 5184.5643,-171 3189.8083,-171 3189.8083,-171"/>
<polygon fill="#000000" stroke="#000000" points="3189.8083,-167.5001 3179.8083,-171 3189.8083,-174.5001 3189.8083,-167.5001"/>
</g>
<!-- CreateExternalFirmDialogComponent&#45;&gt;AppModule -->
<g id="edge9" class="edge">
<title>CreateExternalFirmDialogComponent&#45;&gt;AppModule</title>
<path fill="none" stroke="#000000" d="M5261.4357,-122.1289C5261.4357,-142.5724 5261.4357,-173 5261.4357,-173 5261.4357,-173 3189.9391,-173 3189.9391,-173"/>
<polygon fill="#000000" stroke="#000000" points="3189.9391,-169.5001 3179.9391,-173 3189.9391,-176.5001 3189.9391,-169.5001"/>
</g>
<!-- CreateTaskComponent -->
<g id="node9" class="node">
<title>CreateTaskComponent</title>
<polygon fill="#ffffb3" stroke="#000000" points="5089.5758,-122 4944.4242,-122 4944.4242,-86 5089.5758,-86 5089.5758,-122"/>
<text text-anchor="middle" x="5017" y="-99.8" font-family="Times,serif" font-size="14.00" fill="#000000">CreateTaskComponent</text>
</g>
<!-- CreateTaskComponent&#45;&gt;AppModule -->
<g id="edge10" class="edge">
<title>CreateTaskComponent&#45;&gt;AppModule</title>
<path fill="none" stroke="#000000" d="M5017,-122.1061C5017,-141.3391 5017,-169 5017,-169 5017,-169 3189.8801,-169 3189.8801,-169"/>
<polygon fill="#000000" stroke="#000000" points="3189.8801,-165.5001 3179.8801,-169 3189.88,-172.5001 3189.8801,-165.5001"/>
</g>
<!-- DefectMeldenComponent -->
<g id="node10" class="node">
<title>DefectMeldenComponent</title>
<polygon fill="#ffffb3" stroke="#000000" points="4926.8989,-122 4765.1011,-122 4765.1011,-86 4926.8989,-86 4926.8989,-122"/>
<text text-anchor="middle" x="4846" y="-99.8" font-family="Times,serif" font-size="14.00" fill="#000000">DefectMeldenComponent</text>
</g>
<!-- DefectMeldenComponent&#45;&gt;AppModule -->
<g id="edge11" class="edge">
<title>DefectMeldenComponent&#45;&gt;AppModule</title>
<path fill="none" stroke="#000000" d="M4846,-122.1686C4846,-141.0898 4846,-168 4846,-168 4846,-168 3189.7963,-168 3189.7963,-168"/>
<polygon fill="#000000" stroke="#000000" points="3189.7964,-164.5001 3179.7963,-168 3189.7963,-171.5001 3189.7964,-164.5001"/>
</g>
<!-- DialogModalComponent -->
<g id="node11" class="node">
<title>DialogModalComponent</title>
<polygon fill="#ffffb3" stroke="#000000" points="4746.9846,-122 4591.0154,-122 4591.0154,-86 4746.9846,-86 4746.9846,-122"/>
<text text-anchor="middle" x="4669" y="-99.8" font-family="Times,serif" font-size="14.00" fill="#000000">DialogModalComponent</text>
</g>
<!-- DialogModalComponent&#45;&gt;AppModule -->
<g id="edge12" class="edge">
<title>DialogModalComponent&#45;&gt;AppModule</title>
<path fill="none" stroke="#000000" d="M4669,-122.2667C4669,-140.5552 4669,-166 4669,-166 4669,-166 3189.7446,-166 3189.7446,-166"/>
<polygon fill="#000000" stroke="#000000" points="3189.7446,-162.5001 3179.7446,-166 3189.7445,-169.5001 3189.7446,-162.5001"/>
</g>
<!-- InstellingenComponent -->
<g id="node12" class="node">
<title>InstellingenComponent</title>
<polygon fill="#ffffb3" stroke="#000000" points="4572.9298,-122 4425.0702,-122 4425.0702,-86 4572.9298,-86 4572.9298,-122"/>
<text text-anchor="middle" x="4499" y="-99.8" font-family="Times,serif" font-size="14.00" fill="#000000">InstellingenComponent</text>
</g>
<!-- InstellingenComponent&#45;&gt;AppModule -->
<g id="edge13" class="edge">
<title>InstellingenComponent&#45;&gt;AppModule</title>
<path fill="none" stroke="#000000" d="M4499,-122.002C4499,-139.6754 4499,-164 4499,-164 4499,-164 3189.849,-164 3189.849,-164"/>
<polygon fill="#000000" stroke="#000000" points="3189.8491,-160.5001 3179.849,-164 3189.849,-167.5001 3189.8491,-160.5001"/>
</g>
<!-- MailTemplateComponent -->
<g id="node13" class="node">
<title>MailTemplateComponent</title>
<polygon fill="#ffffb3" stroke="#000000" points="4407.1414,-122 4246.8586,-122 4246.8586,-86 4407.1414,-86 4407.1414,-122"/>
<text text-anchor="middle" x="4327" y="-99.8" font-family="Times,serif" font-size="14.00" fill="#000000">MailTemplateComponent</text>
</g>
<!-- MailTemplateComponent&#45;&gt;AppModule -->
<g id="edge14" class="edge">
<title>MailTemplateComponent&#45;&gt;AppModule</title>
<path fill="none" stroke="#000000" d="M4327,-122.0336C4327,-139.0597 4327,-162 4327,-162 4327,-162 3189.9679,-162 3189.9679,-162"/>
<polygon fill="#000000" stroke="#000000" points="3189.9679,-158.5001 3179.9679,-162 3189.9679,-165.5001 3189.9679,-158.5001"/>
</g>
<!-- MatConfirmDialogComponent -->
<g id="node14" class="node">
<title>MatConfirmDialogComponent</title>
<polygon fill="#ffffb3" stroke="#000000" points="4228.9241,-122 4039.0759,-122 4039.0759,-86 4228.9241,-86 4228.9241,-122"/>
<text text-anchor="middle" x="4134" y="-99.8" font-family="Times,serif" font-size="14.00" fill="#000000">MatConfirmDialogComponent</text>
</g>
<!-- MatConfirmDialogComponent&#45;&gt;AppModule -->
<g id="edge15" class="edge">
<title>MatConfirmDialogComponent&#45;&gt;AppModule</title>
<path fill="none" stroke="#000000" d="M4134,-122.027C4134,-138.3976 4134,-160 4134,-160 4134,-160 3189.8442,-160 3189.8442,-160"/>
<polygon fill="#000000" stroke="#000000" points="3189.8443,-156.5001 3179.8442,-160 3189.8442,-163.5001 3189.8443,-156.5001"/>
</g>
<!-- MatContactsDiaglogComponent -->
<g id="node15" class="node">
<title>MatContactsDiaglogComponent</title>
<polygon fill="#ffffb3" stroke="#000000" points="4020.9762,-122 3823.0238,-122 3823.0238,-86 4020.9762,-86 4020.9762,-122"/>
<text text-anchor="middle" x="3922" y="-99.8" font-family="Times,serif" font-size="14.00" fill="#000000">MatContactsDiaglogComponent</text>
</g>
<!-- MatContactsDiaglogComponent&#45;&gt;AppModule -->
<g id="edge16" class="edge">
<title>MatContactsDiaglogComponent&#45;&gt;AppModule</title>
<path fill="none" stroke="#000000" d="M3922,-122.0091C3922,-138.0494 3922,-159 3922,-159 3922,-159 3189.8741,-159 3189.8741,-159"/>
<polygon fill="#000000" stroke="#000000" points="3189.8741,-155.5001 3179.8741,-159 3189.874,-162.5001 3189.8741,-155.5001"/>
</g>
<!-- MeldingDetailComponent -->
<g id="node16" class="node">
<title>MeldingDetailComponent</title>
<polygon fill="#ffffb3" stroke="#000000" points="3805.4804,-122 3642.5196,-122 3642.5196,-86 3805.4804,-86 3805.4804,-122"/>
<text text-anchor="middle" x="3724" y="-99.8" font-family="Times,serif" font-size="14.00" fill="#000000">MeldingDetailComponent</text>
</g>
<!-- MeldingDetailComponent&#45;&gt;AppModule -->
<g id="edge17" class="edge">
<title>MeldingDetailComponent&#45;&gt;AppModule</title>
<path fill="none" stroke="#000000" d="M3724,-122.2396C3724,-137.5706 3724,-157 3724,-157 3724,-157 3189.6739,-157 3189.6739,-157"/>
<polygon fill="#000000" stroke="#000000" points="3189.6739,-153.5001 3179.6739,-157 3189.6739,-160.5001 3189.6739,-153.5001"/>
</g>
<!-- MijnMeldingenComponent -->
<g id="node17" class="node">
<title>MijnMeldingenComponent</title>
<polygon fill="#ffffb3" stroke="#000000" points="3624.7133,-122 3455.2867,-122 3455.2867,-86 3624.7133,-86 3624.7133,-122"/>
<text text-anchor="middle" x="3540" y="-99.8" font-family="Times,serif" font-size="14.00" fill="#000000">MijnMeldingenComponent</text>
</g>
<!-- MijnMeldingenComponent&#45;&gt;AppModule -->
<g id="edge18" class="edge">
<title>MijnMeldingenComponent&#45;&gt;AppModule</title>
<path fill="none" stroke="#000000" d="M3540,-122.1243C3540,-136.7832 3540,-155 3540,-155 3540,-155 3189.8834,-155 3189.8834,-155"/>
<polygon fill="#000000" stroke="#000000" points="3189.8834,-151.5001 3179.8834,-155 3189.8834,-158.5001 3189.8834,-151.5001"/>
</g>
<!-- MijnTakenComponent -->
<g id="node18" class="node">
<title>MijnTakenComponent</title>
<polygon fill="#ffffb3" stroke="#000000" points="3437.5407,-122 3294.4593,-122 3294.4593,-86 3437.5407,-86 3437.5407,-122"/>
<text text-anchor="middle" x="3366" y="-99.8" font-family="Times,serif" font-size="14.00" fill="#000000">MijnTakenComponent</text>
</g>
<!-- MijnTakenComponent&#45;&gt;AppModule -->
<g id="edge19" class="edge">
<title>MijnTakenComponent&#45;&gt;AppModule</title>
<path fill="none" stroke="#000000" d="M3366,-122.2458C3366,-136.1772 3366,-153 3366,-153 3366,-153 3189.8187,-153 3189.8187,-153"/>
<polygon fill="#000000" stroke="#000000" points="3189.8187,-149.5001 3179.8187,-153 3189.8187,-156.5001 3189.8187,-149.5001"/>
</g>
<!-- NavBarComponent -->
<g id="node19" class="node">
<title>NavBarComponent</title>
<polygon fill="#ffffb3" stroke="#000000" points="3276.3655,-122 3151.6345,-122 3151.6345,-86 3276.3655,-86 3276.3655,-122"/>
<text text-anchor="middle" x="3214" y="-99.8" font-family="Times,serif" font-size="14.00" fill="#000000">NavBarComponent</text>
</g>
<!-- NavBarComponent&#45;&gt;AppModule -->
<g id="edge20" class="edge">
<title>NavBarComponent&#45;&gt;AppModule</title>
<path fill="none" stroke="#000000" d="M3165.6978,-122.1061C3165.6978,-122.1061 3165.6978,-140.991 3165.6978,-140.991"/>
<polygon fill="#000000" stroke="#000000" points="3162.1978,-140.9909 3165.6978,-150.991 3169.1978,-140.991 3162.1978,-140.9909"/>
</g>
<!-- NoodgevalComponent -->
<g id="node20" class="node">
<title>NoodgevalComponent</title>
<polygon fill="#ffffb3" stroke="#000000" points="3133.259,-122 2990.741,-122 2990.741,-86 3133.259,-86 3133.259,-122"/>
<text text-anchor="middle" x="3062" y="-99.8" font-family="Times,serif" font-size="14.00" fill="#000000">NoodgevalComponent</text>
</g>
<!-- NoodgevalComponent&#45;&gt;AppModule -->
<g id="edge21" class="edge">
<title>NoodgevalComponent&#45;&gt;AppModule</title>
<path fill="none" stroke="#000000" d="M3114.7756,-122.1061C3114.7756,-122.1061 3114.7756,-140.991 3114.7756,-140.991"/>
<polygon fill="#000000" stroke="#000000" points="3111.2757,-140.9909 3114.7756,-150.991 3118.2757,-140.991 3111.2757,-140.9909"/>
</g>
<!-- NotFoundComponent -->
<g id="node21" class="node">
<title>NotFoundComponent</title>
<polygon fill="#ffffb3" stroke="#000000" points="2973.1122,-122 2834.8878,-122 2834.8878,-86 2973.1122,-86 2973.1122,-122"/>
<text text-anchor="middle" x="2904" y="-99.8" font-family="Times,serif" font-size="14.00" fill="#000000">NotFoundComponent</text>
</g>
<!-- NotFoundComponent&#45;&gt;AppModule -->
<g id="edge22" class="edge">
<title>NotFoundComponent&#45;&gt;AppModule</title>
<path fill="none" stroke="#000000" d="M2904,-122.2458C2904,-136.1772 2904,-153 2904,-153 2904,-153 3086.1655,-153 3086.1655,-153"/>
<polygon fill="#000000" stroke="#000000" points="3086.1655,-156.5001 3096.1655,-153 3086.1655,-149.5001 3086.1655,-156.5001"/>
</g>
<!-- NotificatiesComponent -->
<g id="node22" class="node">
<title>NotificatiesComponent</title>
<polygon fill="#ffffb3" stroke="#000000" points="2817.1414,-122 2670.8586,-122 2670.8586,-86 2817.1414,-86 2817.1414,-122"/>
<text text-anchor="middle" x="2744" y="-99.8" font-family="Times,serif" font-size="14.00" fill="#000000">NotificatiesComponent</text>
</g>
<!-- NotificatiesComponent&#45;&gt;AppModule -->
<g id="edge23" class="edge">
<title>NotificatiesComponent&#45;&gt;AppModule</title>
<path fill="none" stroke="#000000" d="M2744,-122.1243C2744,-136.7832 2744,-155 2744,-155 2744,-155 3086.2081,-155 3086.2081,-155"/>
<polygon fill="#000000" stroke="#000000" points="3086.2081,-158.5001 3096.2081,-155 3086.2081,-151.5001 3086.2081,-158.5001"/>
</g>
<!-- OverzichtComponent -->
<g id="node23" class="node">
<title>OverzichtComponent</title>
<polygon fill="#ffffb3" stroke="#000000" points="2652.0254,-122 2515.9746,-122 2515.9746,-86 2652.0254,-86 2652.0254,-122"/>
<text text-anchor="middle" x="2584" y="-99.8" font-family="Times,serif" font-size="14.00" fill="#000000">OverzichtComponent</text>
</g>
<!-- OverzichtComponent&#45;&gt;AppModule -->
<g id="edge24" class="edge">
<title>OverzichtComponent&#45;&gt;AppModule</title>
<path fill="none" stroke="#000000" d="M2584,-122.2396C2584,-137.5706 2584,-157 2584,-157 2584,-157 3085.9052,-157 3085.9052,-157"/>
<polygon fill="#000000" stroke="#000000" points="3085.9053,-160.5001 3095.9052,-157 3085.9052,-153.5001 3085.9053,-160.5001"/>
</g>
<!-- SendMailtemplateComponent -->
<g id="node24" class="node">
<title>SendMailtemplateComponent</title>
<polygon fill="#ffffb3" stroke="#000000" points="2497.9762,-122 2314.0238,-122 2314.0238,-86 2497.9762,-86 2497.9762,-122"/>
<text text-anchor="middle" x="2406" y="-99.8" font-family="Times,serif" font-size="14.00" fill="#000000">SendMailtemplateComponent</text>
</g>
<!-- SendMailtemplateComponent&#45;&gt;AppModule -->
<g id="edge25" class="edge">
<title>SendMailtemplateComponent&#45;&gt;AppModule</title>
<path fill="none" stroke="#000000" d="M2406,-122.0091C2406,-138.0494 2406,-159 2406,-159 2406,-159 3086.2817,-159 3086.2817,-159"/>
<polygon fill="#000000" stroke="#000000" points="3086.2817,-162.5001 3096.2817,-159 3086.2816,-155.5001 3086.2817,-162.5001"/>
</g>
<!-- TaskDetailComponent -->
<g id="node25" class="node">
<title>TaskDetailComponent</title>
<polygon fill="#ffffb3" stroke="#000000" points="2296.252,-122 2153.748,-122 2153.748,-86 2296.252,-86 2296.252,-122"/>
<text text-anchor="middle" x="2225" y="-99.8" font-family="Times,serif" font-size="14.00" fill="#000000">TaskDetailComponent</text>
</g>
<!-- TaskDetailComponent&#45;&gt;AppModule -->
<g id="edge26" class="edge">
<title>TaskDetailComponent&#45;&gt;AppModule</title>
<path fill="none" stroke="#000000" d="M2225,-122.027C2225,-138.3976 2225,-160 2225,-160 2225,-160 3086.097,-160 3086.097,-160"/>
<polygon fill="#000000" stroke="#000000" points="3086.097,-163.5001 3096.097,-160 3086.097,-156.5001 3086.097,-163.5001"/>
</g>
<!-- TaskMeldenComponent -->
<g id="node26" class="node">
<title>TaskMeldenComponent</title>
<polygon fill="#ffffb3" stroke="#000000" points="2135.8089,-122 1984.1911,-122 1984.1911,-86 2135.8089,-86 2135.8089,-122"/>
<text text-anchor="middle" x="2060" y="-99.8" font-family="Times,serif" font-size="14.00" fill="#000000">TaskMeldenComponent</text>
</g>
<!-- TaskMeldenComponent&#45;&gt;AppModule -->
<g id="edge27" class="edge">
<title>TaskMeldenComponent&#45;&gt;AppModule</title>
<path fill="none" stroke="#000000" d="M2034.7819,-122.002C2034.7819,-139.6754 2034.7819,-164 2034.7819,-164 2034.7819,-164 3086.0997,-164 3086.0997,-164"/>
<polygon fill="#000000" stroke="#000000" points="3086.0997,-167.5001 3096.0997,-164 3086.0997,-160.5001 3086.0997,-167.5001"/>
</g>
<!-- TaskMeldenComponent&#45;&gt;AppModule -->
<g id="edge28" class="edge">
<title>TaskMeldenComponent&#45;&gt;AppModule</title>
<path fill="none" stroke="#000000" d="M2085.2181,-122.0336C2085.2181,-139.0597 2085.2181,-162 2085.2181,-162 2085.2181,-162 3086.08,-162 3086.08,-162"/>
<polygon fill="#000000" stroke="#000000" points="3086.0801,-165.5001 3096.08,-162 3086.08,-158.5001 3086.0801,-165.5001"/>
</g>
<!-- UpdateContactDialogComponent -->
<g id="node27" class="node">
<title>UpdateContactDialogComponent</title>
<polygon fill="#ffffb3" stroke="#000000" points="1966.9086,-122 1763.0914,-122 1763.0914,-86 1966.9086,-86 1966.9086,-122"/>
<text text-anchor="middle" x="1865" y="-99.8" font-family="Times,serif" font-size="14.00" fill="#000000">UpdateContactDialogComponent</text>
</g>
<!-- UpdateContactDialogComponent&#45;&gt;AppModule -->
<g id="edge29" class="edge">
<title>UpdateContactDialogComponent&#45;&gt;AppModule</title>
<path fill="none" stroke="#000000" d="M1865,-122.2667C1865,-140.5552 1865,-166 1865,-166 1865,-166 3086.0076,-166 3086.0076,-166"/>
<polygon fill="#000000" stroke="#000000" points="3086.0076,-169.5001 3096.0076,-166 3086.0076,-162.5001 3086.0076,-169.5001"/>
</g>
<!-- UpdateMailtemplateComponent -->
<g id="node28" class="node">
<title>UpdateMailtemplateComponent</title>
<polygon fill="#ffffb3" stroke="#000000" points="1745.4058,-122 1548.5942,-122 1548.5942,-86 1745.4058,-86 1745.4058,-122"/>
<text text-anchor="middle" x="1647" y="-99.8" font-family="Times,serif" font-size="14.00" fill="#000000">UpdateMailtemplateComponent</text>
</g>
<!-- UpdateMailtemplateComponent&#45;&gt;AppModule -->
<g id="edge30" class="edge">
<title>UpdateMailtemplateComponent&#45;&gt;AppModule</title>
<path fill="none" stroke="#000000" d="M1647,-122.1686C1647,-141.0898 1647,-168 1647,-168 1647,-168 3086.1733,-168 3086.1733,-168"/>
<polygon fill="#000000" stroke="#000000" points="3086.1734,-171.5001 3096.1733,-168 3086.1733,-164.5001 3086.1734,-171.5001"/>
</g>
<!-- UsersDialogComponent -->
<g id="node29" class="node">
<title>UsersDialogComponent</title>
<polygon fill="#ffffb3" stroke="#000000" points="1530.8061,-122 1379.1939,-122 1379.1939,-86 1530.8061,-86 1530.8061,-122"/>
<text text-anchor="middle" x="1455" y="-99.8" font-family="Times,serif" font-size="14.00" fill="#000000">UsersDialogComponent</text>
</g>
<!-- UsersDialogComponent&#45;&gt;AppModule -->
<g id="edge31" class="edge">
<title>UsersDialogComponent&#45;&gt;AppModule</title>
<path fill="none" stroke="#000000" d="M1429.7824,-122.308C1429.7824,-142.1455 1429.7824,-171 1429.7824,-171 1429.7824,-171 3086.1984,-171 3086.1984,-171"/>
<polygon fill="#000000" stroke="#000000" points="3086.1984,-174.5001 3096.1984,-171 3086.1983,-167.5001 3086.1984,-174.5001"/>
</g>
<!-- UsersDialogComponent&#45;&gt;AppModule -->
<g id="edge32" class="edge">
<title>UsersDialogComponent&#45;&gt;AppModule</title>
<path fill="none" stroke="#000000" d="M1480.2176,-122.1061C1480.2176,-141.3391 1480.2176,-169 1480.2176,-169 1480.2176,-169 3086.1918,-169 3086.1918,-169"/>
<polygon fill="#000000" stroke="#000000" points="3086.1918,-172.5001 3096.1918,-169 3086.1917,-165.5001 3086.1918,-172.5001"/>
</g>
<!-- AppComponent  -->
<g id="node32" class="node">
<title>AppComponent </title>
<polygon fill="#80b1d3" stroke="#000000" points="3192.439,-252 3083.561,-252 3083.561,-216 3192.439,-216 3192.439,-252"/>
<text text-anchor="middle" x="3138" y="-229.8" font-family="Times,serif" font-size="14.00" fill="#000000">AppComponent </text>
</g>
<!-- AppModule&#45;&gt;AppComponent  -->
<g id="edge34" class="edge">
<title>AppModule&#45;&gt;AppComponent </title>
<path fill="none" stroke="#000000" stroke-dasharray="1,5" d="M3138,-187.1061C3138,-187.1061 3138,-205.991 3138,-205.991"/>
<polygon fill="#000000" stroke="#000000" points="3134.5001,-205.9909 3138,-215.991 3141.5001,-205.991 3134.5001,-205.9909"/>
</g>
<!-- AppRoutingModule -->
<g id="node31" class="node">
<title>AppRoutingModule</title>
<polygon fill="#8dd3c7" stroke="#000000" points="1355.2744,-122 1352.2744,-126 1331.2744,-126 1328.2744,-122 1226.7256,-122 1226.7256,-86 1355.2744,-86 1355.2744,-122"/>
<text text-anchor="middle" x="1291" y="-99.8" font-family="Times,serif" font-size="14.00" fill="#000000">AppRoutingModule</text>
</g>
<!-- AppRoutingModule&#45;&gt;AppModule -->
<g id="edge33" class="edge">
<title>AppRoutingModule&#45;&gt;AppModule</title>
<path fill="none" stroke="#000000" d="M1291,-122.1289C1291,-142.5724 1291,-173 1291,-173 1291,-173 3085.9525,-173 3085.9525,-173"/>
<polygon fill="#000000" stroke="#000000" points="3085.9526,-176.5001 3095.9525,-173 3085.9525,-169.5001 3085.9526,-176.5001"/>
</g>
<!-- ArchiveService -->
<g id="node33" class="node">
<title>ArchiveService</title>
<ellipse fill="#fdb462" stroke="#000000" cx="1132" cy="-104" rx="71.1843" ry="18"/>
<text text-anchor="middle" x="1132" y="-99.8" font-family="Times,serif" font-size="14.00" fill="#000000">ArchiveService</text>
</g>
<!-- ArchiveService&#45;&gt;AppModule -->
<g id="edge35" class="edge">
<title>ArchiveService&#45;&gt;AppModule</title>
<path fill="none" stroke="#000000" d="M1132,-122.2843C1132,-143.3211 1132,-175 1132,-175 1132,-175 3086.1018,-175 3086.1018,-175"/>
<polygon fill="#000000" stroke="#000000" points="3086.1019,-178.5001 3096.1018,-175 3086.1018,-171.5001 3086.1019,-178.5001"/>
</g>
<!-- AuthService -->
<g id="node34" class="node">
<title>AuthService</title>
<ellipse fill="#fdb462" stroke="#000000" cx="984" cy="-104" rx="59.1083" ry="18"/>
<text text-anchor="middle" x="984" y="-99.8" font-family="Times,serif" font-size="14.00" fill="#000000">AuthService</text>
</g>
<!-- AuthService&#45;&gt;AppModule -->
<g id="edge36" class="edge">
<title>AuthService&#45;&gt;AppModule</title>
<path fill="none" stroke="#000000" d="M984,-122.0449C984,-143.6623 984,-177 984,-177 984,-177 3085.9389,-177 3085.9389,-177"/>
<polygon fill="#000000" stroke="#000000" points="3085.9389,-180.5001 3095.9389,-177 3085.9388,-173.5001 3085.9389,-180.5001"/>
</g>
<!-- CategoryService -->
<g id="node35" class="node">
<title>CategoryService</title>
<ellipse fill="#fdb462" stroke="#000000" cx="831" cy="-104" rx="75.279" ry="18"/>
<text text-anchor="middle" x="831" y="-99.8" font-family="Times,serif" font-size="14.00" fill="#000000">CategoryService</text>
</g>
<!-- CategoryService&#45;&gt;AppModule -->
<g id="edge37" class="edge">
<title>CategoryService&#45;&gt;AppModule</title>
<path fill="none" stroke="#000000" d="M831,-122.2921C831,-144.2057 831,-178 831,-178 831,-178 3085.9883,-178 3085.9883,-178"/>
<polygon fill="#000000" stroke="#000000" points="3085.9884,-181.5001 3095.9883,-178 3085.9883,-174.5001 3085.9884,-181.5001"/>
</g>
<!-- CommentService -->
<g id="node36" class="node">
<title>CommentService</title>
<ellipse fill="#fdb462" stroke="#000000" cx="660" cy="-104" rx="78.1675" ry="18"/>
<text text-anchor="middle" x="660" y="-99.8" font-family="Times,serif" font-size="14.00" fill="#000000">CommentService</text>
</g>
<!-- CommentService&#45;&gt;AppModule -->
<g id="edge38" class="edge">
<title>CommentService&#45;&gt;AppModule</title>
<path fill="none" stroke="#000000" d="M660,-122.0109C660,-144.4852 660,-180 660,-180 660,-180 3086.2875,-180 3086.2875,-180"/>
<polygon fill="#000000" stroke="#000000" points="3086.2875,-183.5001 3096.2875,-180 3086.2874,-176.5001 3086.2875,-183.5001"/>
</g>
<!-- CompressorService -->
<g id="node37" class="node">
<title>CompressorService</title>
<ellipse fill="#fdb462" stroke="#000000" cx="477" cy="-104" rx="86.8146" ry="18"/>
<text text-anchor="middle" x="477" y="-99.8" font-family="Times,serif" font-size="14.00" fill="#000000">CompressorService</text>
</g>
<!-- CompressorService&#45;&gt;AppModule -->
<g id="edge39" class="edge">
<title>CompressorService&#45;&gt;AppModule</title>
<path fill="none" stroke="#000000" d="M477,-122.0908C477,-145.1328 477,-182 477,-182 477,-182 3086.202,-182 3086.202,-182"/>
<polygon fill="#000000" stroke="#000000" points="3086.2021,-185.5001 3096.202,-182 3086.202,-178.5001 3086.2021,-185.5001"/>
</g>
<!-- ConfirmDialogService -->
<g id="node38" class="node">
<title>ConfirmDialogService</title>
<ellipse fill="#fdb462" stroke="#000000" cx="273" cy="-104" rx="98.9936" ry="18"/>
<text text-anchor="middle" x="273" y="-99.8" font-family="Times,serif" font-size="14.00" fill="#000000">ConfirmDialogService</text>
</g>
<!-- ConfirmDialogService&#45;&gt;AppModule -->
<g id="edge40" class="edge">
<title>ConfirmDialogService&#45;&gt;AppModule</title>
<path fill="none" stroke="#000000" d="M273,-122.1532C273,-145.7566 273,-184 273,-184 273,-184 3086.1168,-184 3086.1168,-184"/>
<polygon fill="#000000" stroke="#000000" points="3086.1168,-187.5001 3096.1168,-184 3086.1167,-180.5001 3086.1168,-187.5001"/>
</g>
<!-- ExportService -->
<g id="node39" class="node">
<title>ExportService</title>
<ellipse fill="#fdb462" stroke="#000000" cx="90" cy="-104" rx="66.0512" ry="18"/>
<text text-anchor="middle" x="90" y="-99.8" font-family="Times,serif" font-size="14.00" fill="#000000">ExportService</text>
</g>
<!-- ExportService&#45;&gt;AppModule -->
<g id="edge41" class="edge">
<title>ExportService&#45;&gt;AppModule</title>
<path fill="none" stroke="#000000" d="M90,-122.1985C90,-146.3563 90,-186 90,-186 90,-186 3086.0725,-186 3086.0725,-186"/>
<polygon fill="#000000" stroke="#000000" points="3086.0725,-189.5001 3096.0725,-186 3086.0724,-182.5001 3086.0725,-189.5001"/>
</g>
</g>
</svg>
